<svg class="animated" xmlns="http://www.w3.org/2000/svg" xmlns:xlink="http://www.w3.org/1999/xlink" viewBox="0 0 500 500" version="1.1" xmlns:svgjs="http://svgjs.com/svgjs" width="800" height="800" style="filter:hue-rotate(-20deg)"><style>svg:not(.animated) .animable {opacity: 0;}.animated #Plants--inject-1 {animation: 1s 1 forwards cubic-bezier(.36,-0.01,.5,1.38) fadeIn;animation-delay: 0.3s;opacity: 0}.animated #Books--inject-1 {animation: 1s 1 forwards ease-out slideUp;animation-delay: 2.0s;opacity: 0}.animated #Bookshelf--inject-1 {animation: 1s 1 forwards cubic-bezier(.36,-0.01,.5,1.38) fadeIn;animation-delay: 1.5s;opacity: 0}.animated #character-1--inject-1 {animation: 1s 1 forwards cubic-bezier(.36,-0.01,.5,1.38) fadeIn;animation-delay: 0.5s;opacity: 0}.animated #character-2--inject-1 {animation: 1.2s 1 forwards ease-out slideRight;animation-delay: 1.3s;opacity: 0}.animated #Device--inject-1 {animation: 1s 1 forwards ease-out fadeIn,3.0s Infinite  linear floating;animation-delay: 0s,1s;}            @keyframes fadeIn {                0% {                    opacity: 0;                }                100% {                    opacity: 1;                }            }                    @keyframes slideUp {                0% {                    opacity: 0;                    transform: translateY(30px);                }                100% {                    opacity: 1;                    transform: inherit;                }            }                    @keyframes slideRight {                0% {                    opacity: 0;                    transform: translateX(30px);                }                100% {                    opacity: 1;                    transform: translateX(0);                }            }                    @keyframes floating {                0% {                    opacity: 1;                    transform: translateY(0px);                }                50% {                    transform: translateY(-10px);                }                100% {                    opacity: 1;                    transform: translateY(0px);                }            }        </style><g id="background-simple--inject-1" class="animable animator-active" style="transform-origin: 245.307px 225.319px;"><path d="M454.38,244.31c2.17-28.81-4.54-58.91-13.52-85.74C427.52,118.72,401.62,77.85,358,68.42c-25.15-5.44-50.74.39-72.3,14-20.74,13.11-36.92,30-62.4,33.32-25.79,3.32-52.25,2-78.18,2-66.64,0-120.73,70-107.21,143s77.27,123.5,131.36,123.5c48.6,0,88.59-29.16,134.76-37,22.89-3.88,45.88.72,68.53-5.1,26.33-6.76,51.1-22.9,65.68-46.26C448.19,279.91,453,262.36,454.38,244.31Z" style="fill: rgb(137, 231, 121); transform-origin: 245.307px 225.319px;" id="elx1bk88rdnu" class="animable"></path><g id="eleud35n27ash"><path d="M454.38,244.31c2.17-28.81-4.54-58.91-13.52-85.74C427.52,118.72,401.62,77.85,358,68.42c-25.15-5.44-50.74.39-72.3,14-20.74,13.11-36.92,30-62.4,33.32-25.79,3.32-52.25,2-78.18,2-66.64,0-120.73,70-107.21,143s77.27,123.5,131.36,123.5c48.6,0,88.59-29.16,134.76-37,22.89-3.88,45.88.72,68.53-5.1,26.33-6.76,51.1-22.9,65.68-46.26C448.19,279.91,453,262.36,454.38,244.31Z" style="fill: rgb(255, 255, 255); opacity: 0.7; transform-origin: 245.307px 225.319px;" class="animable"></path></g></g><g id="Pictures--inject-1" class="animable" style="transform-origin: 277.98px 196.665px;"><rect x="177.34" y="136.92" width="71.05" height="98.5" style="fill: none; stroke: rgb(38, 50, 56); stroke-miterlimit: 10; stroke-width: 1.21103px; transform-origin: 212.865px 186.17px;" id="elnqt64uhd93r" class="animable"></rect><rect x="186.07" y="149.03" width="53.58" height="74.28" style="fill: none; stroke: rgb(38, 50, 56); stroke-miterlimit: 10; stroke-width: 1.21103px; transform-origin: 212.86px 186.17px;" id="el6izrom2wq44" class="animable"></rect><rect x="329.12" y="187.78" width="49.5" height="68.63" style="fill: none; stroke: rgb(38, 50, 56); stroke-miterlimit: 10; stroke-width: 1.21103px; transform-origin: 353.87px 222.095px;" id="el5a39se9ezfr" class="animable"></rect><rect x="335.21" y="196.22" width="37.33" height="51.75" style="fill: none; stroke: rgb(38, 50, 56); stroke-miterlimit: 10; stroke-width: 1.21103px; transform-origin: 353.875px 222.095px;" id="el2n7as36tvc7" class="animable"></rect></g><g id="Plants--inject-1" class="animable" style="transform-origin: 422.968px 340px;"><path d="M442.14,317.73s.94-3.43,1-3.66c.36-2.6-.47-7.85-3.12-9.13a3.47,3.47,0,0,0-4.74,2.1c-.71,1.95.19,4.35,1.25,6C437.76,315,442.14,317.73,442.14,317.73Z" style="fill: rgb(38, 50, 56); transform-origin: 439.123px 311.18px;" id="elasjfu4ih7q" class="animable"></path><path d="M389.83,316.6c2.12.92,7.29.8,7.29.8s-1.11-3.38-1.21-3.59c-1.13-2.37-4.72-6.29-7.64-5.89a3.48,3.48,0,0,0-2.8,4.36C386,314.31,388,315.81,389.83,316.6Z" style="fill: rgb(38, 50, 56); transform-origin: 391.232px 312.648px;" id="elpmyeahzqg4" class="animable"></path><path d="M397.86,306.11l.05,0c-.12.83-.23,1.73-.34,2.7-.17,1.81-.36,3.85-.41,6.09a61.6,61.6,0,0,0,.17,7.22,45.72,45.72,0,0,0,1.34,8l0,.09c-.47-.73-1.83-2.72-1.95-2.86-1.72-2-6.22-4.83-8.93-3.67a3.49,3.49,0,0,0-1.55,4.95c1,1.82,3.4,2.72,5.35,3,2.19.32,6.81-1,7.17-1.13a62.66,62.66,0,0,0,2.8,7.74q1,2.21,2,4.39c-.42-.62-.8-1.16-.87-1.24-1.72-2-6.21-4.82-8.92-3.67a3.49,3.49,0,0,0-1.55,5c1,1.82,3.4,2.72,5.35,3s5.93-.77,7-1.07c.28.56.55,1.12.82,1.67,1.34,2.66,2.69,5.31,3.93,7.95.43.93.83,1.86,1.23,2.8-.37-.55-.69-1-.75-1.07-1.72-2-6.22-4.83-8.93-3.68a3.49,3.49,0,0,0-1.54,5c1,1.82,3.4,2.72,5.34,3s5.54-.68,6.79-1c.38,1,.76,1.93,1.09,2.88.2.66.45,1.28.62,1.95s.37,1.31.55,2c.3,1.25.62,2.55.88,3.79.19.85.36,1.68.53,2.5-.43-.93-1.3-2.73-1.39-2.88-1.4-2.22-5.41-5.7-8.27-5a3.49,3.49,0,0,0-2.27,4.67c.71,1.95,2.94,3.2,4.82,3.78,2.07.63,6.65,0,7.23,0,.27,1.36.52,2.7.74,4,.7,4,1.16,7.35,1.46,9.87h2c-.36-2.56-.9-6.06-1.72-10.19-.27-1.39-.59-2.87-.94-4.39a39.19,39.19,0,0,0,4-1.89c1.51,1.63,5.37,3.54,5.87,3.78-.52,1.3-1.05,2.55-1.56,3.72-1.59,3.66-3.06,6.71-4.19,9h2.16c1-2.2,2.3-5,3.64-8.29.54-1.31,1.09-2.72,1.64-4.17.55.11,5.09,1,7.2.56,1.92-.44,4.24-1.52,5.1-3.42a3.47,3.47,0,0,0-1.93-4.81c-2.79-.94-7.05,2.23-8.61,4.35-.1.12-.94,1.59-1.46,2.52.22-.59.44-1.17.66-1.79.45-1.21.86-2.44,1.3-3.75.19-.65.39-1.3.58-1.95s.35-1.36.53-2c.38-1.6.69-3.23,1-4.89,1.06.39,4.87,1.71,6.83,1.58s4.42-.86,5.56-2.61a3.49,3.49,0,0,0-1.17-5.05c-2.62-1.35-7.32,1.14-9.18,3-.12.11-1.31,1.59-1.94,2.42.15-1,.32-2,.44-3,.36-2.92.64-5.89.93-8.85.09-.91.18-1.81.28-2.71.38.14,4.86,1.81,7.07,1.65,2-.13,4.41-.85,5.55-2.6a3.49,3.49,0,0,0-1.17-5.05c-2.62-1.35-7.31,1.14-9.18,3-.14.14-1.85,2.28-2.25,2.84.21-2,.43-4,.74-5.91a59.55,59.55,0,0,1,1.7-7.78c.17.06,4.84,1.83,7.1,1.67,2-.14,4.42-.86,5.56-2.6a3.5,3.5,0,0,0-1.17-5.06c-2.62-1.35-7.32,1.14-9.18,3-.12.12-1.43,1.74-2,2.53l-.15-.08a45.14,45.14,0,0,1,3.09-7.38c.67-1.31,1.39-2.53,2.11-3.7.84.42,4.68,2.29,6.73,2.37s4.48-.37,5.8-2a3.48,3.48,0,0,0-.61-5.15c-2.45-1.63-7.39.33-9.45,2-.11.09-1.15,1.12-1.89,1.88.33-.52.67-1.06,1-1.56,1.23-1.85,2.47-3.47,3.59-4.9.63-.81,1.23-1.53,1.79-2.19,1,0,5.2-.15,7-1s3.81-2.4,4.24-4.43a3.5,3.5,0,0,0-2.92-4.3c-2.93-.31-6.41,3.7-7.48,6.11-.09.2-1.16,3.62-1.11,3.62H449c-.55.63-1.14,1.31-1.76,2.07-1.15,1.4-2.43,3-3.71,4.84a62.26,62.26,0,0,0-3.84,6.12,44.88,44.88,0,0,0-3.28,7.39l0,.09c0-.86,0-3.28-.05-3.46-.33-2.61-2.52-7.45-5.42-8a3.49,3.49,0,0,0-4,3.28c-.17,2.07,1.33,4.15,2.8,5.46,1.65,1.47,6.24,2.9,6.61,3a61.08,61.08,0,0,0-1.94,8c-.28,1.58-.52,3.17-.73,4.78,0-.75,0-1.42,0-1.51-.34-2.61-2.53-7.45-5.42-8a3.49,3.49,0,0,0-4,3.28c-.17,2.07,1.33,4.15,2.79,5.46s5.38,2.62,6.41,2.95c-.07.62-.16,1.23-.23,1.85-.35,3-.69,5.91-1.12,8.79-.14,1-.33,2-.51,3,0-.66,0-1.22,0-1.3-.34-2.61-2.53-7.45-5.43-8a3.49,3.49,0,0,0-4,3.28c-.17,2.07,1.34,4.15,2.8,5.46s5,2.49,6.22,2.89c-.21,1-.42,2-.68,3-.19.66-.32,1.31-.55,2s-.42,1.3-.62,1.94c-.45,1.22-.9,2.47-1.36,3.65-.31.82-.63,1.6-.94,2.38.16-1,.43-3,.43-3.16a13.6,13.6,0,0,0-1.81-6.59,4.9,4.9,0,0,0-.05-.77,3.49,3.49,0,0,0-4.27-3c-2.84.76-4.65,5.76-4.78,8.38,0,.16.09,1.85.17,2.92-.14-.62-.27-1.23-.43-1.86-.3-1.26-.63-2.51-1-3.85-.19-.65-.39-1.3-.59-1.95s-.46-1.32-.68-2c-.57-1.54-1.21-3.07-1.9-4.6,1.1-.27,5-1.26,6.57-2.46s3.21-3.16,3.2-5.24a3.5,3.5,0,0,0-3.77-3.57c-2.93.32-5.47,5-6,7.56,0,.16-.21,2.06-.28,3.1-.42-.92-.83-1.84-1.29-2.75-1.31-2.64-2.71-5.26-4.11-7.89l-1.26-2.42c.4-.09,5.06-1.17,6.81-2.52,1.56-1.19,3.21-3.15,3.2-5.23a3.49,3.49,0,0,0-3.77-3.57c-2.93.32-5.47,5-6,7.56,0,.2-.29,2.92-.31,3.61-.93-1.77-1.83-3.55-2.65-5.34a60.69,60.69,0,0,1-2.87-7.43c.18,0,5.05-1.14,6.84-2.52,1.56-1.2,3.22-3.16,3.2-5.23a3.48,3.48,0,0,0-3.76-3.57c-2.93.31-5.47,5-6,7.56,0,.17-.22,2.24-.29,3.23l-.16,0a45.13,45.13,0,0,1-1.5-7.87c-.17-1.46-.24-2.87-.28-4.24.92-.12,5.16-.68,6.91-1.74s3.54-2.78,3.76-4.85a3.48,3.48,0,0,0-3.35-4c-3,0-6,4.35-6.8,6.85-.05.14-.34,1.57-.54,2.62,0-.62,0-1.26,0-1.85,0-2.23.15-4.27.28-6.08.09-1,.19-2,.29-2.81.86-.59,4.26-3,5.31-4.72s1.86-4.09,1.1-6a3.49,3.49,0,0,0-4.8-2c-2.62,1.35-3.31,6.62-2.87,9.22C396.82,302.7,397.81,306.14,397.86,306.11Z" style="fill: rgb(38, 50, 56); transform-origin: 423.172px 340px;" id="el77uoshgrtgj" class="animable"></path></g><g id="Books--inject-1" class="animable" style="transform-origin: 269.432px 407.119px;"><polygon points="262.8 390.16 221.59 390.16 191.82 406.23 236.75 406.23 262.8 390.16" style="fill: rgb(255, 255, 255); stroke: rgb(38, 50, 56); stroke-linecap: round; stroke-linejoin: round; stroke-width: 1.21103px; transform-origin: 227.31px 398.195px;" id="elc9f5egf52bq" class="animable"></polygon><line x1="221.16" y1="394.05" x2="252.31" y2="394.05" style="fill: none; stroke: rgb(38, 50, 56); stroke-linecap: round; stroke-linejoin: round; stroke-width: 1.21103px; transform-origin: 236.735px 394.05px;" id="elpbt1ryx7to9" class="animable"></line><line x1="216.38" y1="396.55" x2="247.53" y2="396.55" style="fill: none; stroke: rgb(38, 50, 56); stroke-linecap: round; stroke-linejoin: round; stroke-width: 1.21103px; transform-origin: 231.955px 396.55px;" id="el5luuew4rysr" class="animable"></line><line x1="211.6" y1="399.05" x2="242.75" y2="399.05" style="fill: none; stroke: rgb(38, 50, 56); stroke-linecap: round; stroke-linejoin: round; stroke-width: 1.21103px; transform-origin: 227.175px 399.05px;" id="el0rfgm1cstj" class="animable"></line><line x1="206.82" y1="401.56" x2="237.97" y2="401.56" style="fill: none; stroke: rgb(38, 50, 56); stroke-linecap: round; stroke-linejoin: round; stroke-width: 1.21103px; transform-origin: 222.395px 401.56px;" id="ellkrfd0nqng" class="animable"></line><polygon points="191.82 406.23 191.82 409 237.69 409 236.75 406.23 191.82 406.23" style="fill: rgb(255, 255, 255); stroke: rgb(38, 50, 56); stroke-linecap: round; stroke-linejoin: round; stroke-width: 1.21103px; transform-origin: 214.755px 407.615px;" id="el7qa33qa64l5" class="animable"></polygon><polygon points="237.69 409 264 392.53 262.8 390.16 236.75 406.23 237.69 409" style="fill: rgb(255, 255, 255); stroke: rgb(38, 50, 56); stroke-linecap: round; stroke-linejoin: round; stroke-width: 1.21103px; transform-origin: 250.375px 399.58px;" id="elp0a8lf0skap" class="animable"></polygon><path d="M192.57,405.42a3.35,3.35,0,0,1-.11-.85,3.2,3.2,0,0,1,5.45-2.26" style="fill: none; stroke: rgb(38, 50, 56); stroke-linecap: round; stroke-linejoin: round; stroke-width: 1.21103px; transform-origin: 195.185px 403.403px;" id="el0xua61gh3ebh" class="animable"></path><path d="M196.75,403.45a3.34,3.34,0,0,1-.11-.84,3.19,3.19,0,0,1,3.19-3.2,3.16,3.16,0,0,1,2.26.94" style="fill: none; stroke: rgb(38, 50, 56); stroke-linecap: round; stroke-linejoin: round; stroke-width: 1.21103px; transform-origin: 199.365px 401.43px;" id="elvqdppv8fgf" class="animable"></path><path d="M200.6,401.48a3.34,3.34,0,0,1-.11-.84,3.2,3.2,0,0,1,3.19-3.2,3.16,3.16,0,0,1,2.26.94" style="fill: none; stroke: rgb(38, 50, 56); stroke-linecap: round; stroke-linejoin: round; stroke-width: 1.21103px; transform-origin: 203.215px 399.46px;" id="elolq65ehe48n" class="animable"></path><path d="M204.29,399.51a2.84,2.84,0,0,1-.12-.84,3.2,3.2,0,0,1,5.46-2.26" style="fill: none; stroke: rgb(38, 50, 56); stroke-linecap: round; stroke-linejoin: round; stroke-width: 1.21103px; transform-origin: 206.9px 397.493px;" id="elzcdymjdqk3" class="animable"></path><path d="M208.38,397.14a3.34,3.34,0,0,1-.11-.84,3.2,3.2,0,0,1,5.46-2.26" style="fill: none; stroke: rgb(38, 50, 56); stroke-linecap: round; stroke-linejoin: round; stroke-width: 1.21103px; transform-origin: 211px 395.123px;" id="elxpyimgbvfh" class="animable"></path><path d="M212.73,394.68a2.94,2.94,0,0,1-.11-.84,3.19,3.19,0,0,1,5.45-2.26" style="fill: none; stroke: rgb(38, 50, 56); stroke-linecap: round; stroke-linejoin: round; stroke-width: 1.21103px; transform-origin: 215.345px 392.661px;" id="elvv6i240s3i" class="animable"></path><path d="M215.11,393.2a3.34,3.34,0,0,1-.11-.84,3.2,3.2,0,0,1,5.46-2.26" style="fill: none; stroke: rgb(38, 50, 56); stroke-linecap: round; stroke-linejoin: round; stroke-width: 1.21103px; transform-origin: 217.73px 391.183px;" id="eluclrgmgb7kb" class="animable"></path><path d="M268.31,399.76s3.14,6.91-2.06,8.9l30.88,19.83s3,1.73,6.83-1.71.64-11-1.08-11.93S268.31,399.76,268.31,399.76Z" style="fill: rgb(255, 255, 255); stroke: rgb(38, 50, 56); stroke-linecap: round; stroke-linejoin: round; stroke-width: 1.21103px; transform-origin: 286.008px 414.343px;" id="el62qby6wwn55" class="animable"></path><path d="M307,384l-40,15.34,32,17.33a13.55,13.55,0,0,1,4.08,4.44,8.59,8.59,0,0,1,.44,1.38,4.62,4.62,0,0,1-6.89,4.93l-30.41-18.8s-2.82,0,.4,2.42c2.69,2,23.31,14.56,29.88,18.47a5.08,5.08,0,0,0,4.44.39l43.59-17.65a5.52,5.52,0,0,0,2.42-3.73,6.93,6.93,0,0,0-4-7.46Z" style="fill: rgb(38, 50, 56); stroke: rgb(38, 50, 56); stroke-linecap: round; stroke-linejoin: round; stroke-width: 1.21103px; transform-origin: 306.061px 407.119px;" id="el0s0d4yybqmpo" class="animable"></path></g><g id="Bookshelf--inject-1" class="animable" style="transform-origin: 110.42px 264.48px;"><g style="clip-path: url(&quot;#clip-path--inject-1&quot;); transform-origin: 110.42px 264.48px;" id="elmr3csxubj4h" class="animable"><polygon points="86 189.16 80.08 172.25 86 179.44 81.35 154.09 88.53 172.25 91.07 136.76 95.29 170.56 99.94 163.81 99.94 172.25 105.43 160.85 102.47 180.71 107.55 177.33 99.52 188.31 86 189.16" style="fill: rgb(137, 231, 121); transform-origin: 93.815px 162.96px;" id="ellajobmdjvqh" class="animable"></polygon><polygon points="104.59 184.93 82.61 184.93 86.57 229.3 100.63 229.3 104.59 184.93" style="fill: rgb(38, 50, 56); stroke: rgb(38, 50, 56); stroke-linecap: round; stroke-linejoin: round; stroke-width: 1.21103px; transform-origin: 93.6px 207.115px;" id="elex4vm9sck2a" class="animable"></polygon><rect x="70.94" y="228.79" width="74.85" height="158.54" style="fill: rgb(255, 255, 255); stroke: rgb(38, 50, 56); stroke-linecap: round; stroke-linejoin: round; stroke-width: 1.21103px; transform-origin: 108.365px 308.06px;" id="elcae4sgpj93o" class="animable"></rect><rect x="108.37" y="228.79" width="41.53" height="158.54" style="fill: rgb(255, 255, 255); stroke: rgb(38, 50, 56); stroke-linecap: round; stroke-linejoin: round; stroke-width: 1.21103px; transform-origin: 129.135px 308.06px;" id="el554wfsy3sk" class="animable"></rect><rect x="108.37" y="228.79" width="36.85" height="158.54" style="fill: rgb(38, 50, 56); stroke: rgb(38, 50, 56); stroke-linecap: round; stroke-linejoin: round; stroke-width: 1.21103px; transform-origin: 126.795px 308.06px;" id="elvdmtr45isg" class="animable"></rect><rect x="108.37" y="350.48" width="32.71" height="32.47" style="fill: rgb(137, 231, 121); stroke: rgb(38, 50, 56); stroke-linecap: round; stroke-linejoin: round; stroke-width: 1.21103px; transform-origin: 124.725px 366.715px;" id="elx9k9j2p91yc" class="animable"></rect><rect x="108.37" y="352.23" width="32.71" height="4.16" style="fill: rgb(255, 255, 255); stroke: rgb(38, 50, 56); stroke-linecap: round; stroke-linejoin: round; stroke-width: 1.21103px; transform-origin: 124.725px 354.31px;" id="eldmsvvuufw7t" class="animable"></rect><rect x="108.37" y="376.13" width="32.71" height="4.16" style="fill: rgb(255, 255, 255); stroke: rgb(38, 50, 56); stroke-linecap: round; stroke-linejoin: round; stroke-width: 1.21103px; transform-origin: 124.725px 378.21px;" id="elt4prznvdlu" class="animable"></rect><line x1="114.57" y1="351.15" x2="114.57" y2="392.2" style="fill: none; stroke: rgb(38, 50, 56); stroke-linecap: round; stroke-linejoin: round; stroke-width: 1.21103px; transform-origin: 114.57px 371.675px;" id="elkvczj5hza0i" class="animable"></line><line x1="125.98" y1="351.15" x2="125.98" y2="392.2" style="fill: none; stroke: rgb(38, 50, 56); stroke-linecap: round; stroke-linejoin: round; stroke-width: 1.21103px; transform-origin: 125.98px 371.675px;" id="elotlbrumr82j" class="animable"></line><line x1="136" y1="351.15" x2="136" y2="392.2" style="fill: none; stroke: rgb(38, 50, 56); stroke-linecap: round; stroke-linejoin: round; stroke-width: 1.21103px; transform-origin: 136px 371.675px;" id="el78xe81sy3rb" class="animable"></line><rect x="108.37" y="234.68" width="32.71" height="47.74" style="fill: rgb(137, 231, 121); stroke: rgb(38, 50, 56); stroke-linecap: round; stroke-linejoin: round; stroke-width: 1.21103px; transform-origin: 124.725px 258.55px;" id="el65gvuxqysrn" class="animable"></rect><rect x="108.37" y="236.68" width="32.71" height="4.73" style="fill: rgb(255, 255, 255); stroke: rgb(38, 50, 56); stroke-linecap: round; stroke-linejoin: round; stroke-width: 1.21103px; transform-origin: 124.725px 239.045px;" id="elp7kg5gu3qh" class="animable"></rect><rect x="108.37" y="267.28" width="32.71" height="4.73" style="fill: rgb(255, 255, 255); stroke: rgb(38, 50, 56); stroke-linecap: round; stroke-linejoin: round; stroke-width: 1.21103px; transform-origin: 124.725px 269.645px;" id="el1f5dhbj15kd" class="animable"></rect><line x1="114.57" y1="235.44" x2="114.57" y2="282.09" style="fill: none; stroke: rgb(38, 50, 56); stroke-linecap: round; stroke-linejoin: round; stroke-width: 1.21103px; transform-origin: 114.57px 258.765px;" id="elimu0838fx4b" class="animable"></line><line x1="125.98" y1="235.44" x2="125.98" y2="282.09" style="fill: none; stroke: rgb(38, 50, 56); stroke-linecap: round; stroke-linejoin: round; stroke-width: 1.21103px; transform-origin: 125.98px 258.765px;" id="el3lsk89uwprf" class="animable"></line><line x1="136" y1="235.44" x2="136" y2="282.09" style="fill: none; stroke: rgb(38, 50, 56); stroke-linecap: round; stroke-linejoin: round; stroke-width: 1.21103px; transform-origin: 136px 258.765px;" id="el5toxbm5j5gl" class="animable"></line><rect x="108.37" y="292.22" width="32.71" height="47.74" style="fill: rgb(137, 231, 121); stroke: rgb(38, 50, 56); stroke-linecap: round; stroke-linejoin: round; stroke-width: 1.21103px; transform-origin: 124.725px 316.09px;" id="elndxi6wbx3em" class="animable"></rect><rect x="108.37" y="294.21" width="32.71" height="4.73" style="fill: rgb(255, 255, 255); stroke: rgb(38, 50, 56); stroke-linecap: round; stroke-linejoin: round; stroke-width: 1.21103px; transform-origin: 124.725px 296.575px;" id="elw22yn19g6k" class="animable"></rect><rect x="108.37" y="324.82" width="32.71" height="4.73" style="fill: rgb(255, 255, 255); stroke: rgb(38, 50, 56); stroke-linecap: round; stroke-linejoin: round; stroke-width: 1.21103px; transform-origin: 124.725px 327.185px;" id="ell0rjciuzibr" class="animable"></rect><line x1="114.57" y1="292.98" x2="114.57" y2="339.63" style="fill: none; stroke: rgb(38, 50, 56); stroke-linecap: round; stroke-linejoin: round; stroke-width: 1.21103px; transform-origin: 114.57px 316.305px;" id="el4plnz9upf79" class="animable"></line><line x1="125.98" y1="292.98" x2="125.98" y2="339.63" style="fill: none; stroke: rgb(38, 50, 56); stroke-linecap: round; stroke-linejoin: round; stroke-width: 1.21103px; transform-origin: 125.98px 316.305px;" id="elqojyh5zk3e" class="animable"></line><line x1="136" y1="292.98" x2="136" y2="339.63" style="fill: none; stroke: rgb(38, 50, 56); stroke-linecap: round; stroke-linejoin: round; stroke-width: 1.21103px; transform-origin: 136px 316.305px;" id="el3xk98d15u1i" class="animable"></line><rect x="108.37" y="281.76" width="37.43" height="5.43" style="fill: rgb(255, 255, 255); stroke: rgb(38, 50, 56); stroke-linecap: round; stroke-linejoin: round; stroke-width: 1.21103px; transform-origin: 127.085px 284.475px;" id="elhtakyta8bsf" class="animable"></rect><rect x="108.37" y="339.66" width="37.43" height="5.43" style="fill: rgb(255, 255, 255); stroke: rgb(38, 50, 56); stroke-linecap: round; stroke-linejoin: round; stroke-width: 1.21103px; transform-origin: 127.085px 342.375px;" id="elrs6qq77dtuh" class="animable"></rect><line x1="145.79" y1="228.79" x2="145.79" y2="387.33" style="fill: none; stroke: rgb(38, 50, 56); stroke-linecap: round; stroke-linejoin: round; stroke-width: 1.21103px; transform-origin: 145.79px 308.06px;" id="elgvvyioyujil" class="animable"></line><polygon points="103.09 228.79 103.09 387.33 108.37 387.33 108.37 234.68 145.15 234.68 145.15 228.73 103.09 228.79" style="fill: rgb(255, 255, 255); stroke: rgb(38, 50, 56); stroke-linecap: round; stroke-linejoin: round; stroke-width: 1.21103px; transform-origin: 124.12px 308.03px;" id="eltriyrmd1scc" class="animable"></polygon><line x1="108.37" y1="234.68" x2="108.37" y2="228.79" style="fill: none; stroke: rgb(38, 50, 56); stroke-linecap: round; stroke-linejoin: round; stroke-width: 1.21103px; transform-origin: 108.37px 231.735px;" id="elcxyq3uwokw6" class="animable"></line></g></g><g id="character-1--inject-1" class="animable" style="transform-origin: 184.427px 317.955px;"><g style="clip-path: url(&quot;#clip-path-2--inject-1&quot;); transform-origin: 184.427px 317.955px;" id="el0q65k9qddq6a" class="animable"><path d="M195.09,321.86H262s3.83.64,2.56,8.29-8.21,56.49-8.21,56.49H173.71l12.59-62.12S186.8,321.22,195.09,321.86Z" style="fill: rgb(255, 255, 255); stroke: rgb(38, 50, 56); stroke-linecap: round; stroke-linejoin: round; stroke-width: 1.21103px; transform-origin: 219.264px 354.209px;" id="elv3mahd3j7e" class="animable"></path><path d="M264.51,330.15c-1.28,7.66-8.21,56.49-8.21,56.49h-7c1.71-11.56,8-54.39,9.15-59.36s2.91-5.39,3.39-5.42H262S265.78,322.5,264.51,330.15Z" style="fill: rgb(38, 50, 56); stroke: rgb(38, 50, 56); stroke-linecap: round; stroke-linejoin: round; stroke-width: 1.21103px; transform-origin: 257.035px 354.25px;" id="elaa6l7xoeer" class="animable"></path><path d="M183.19,317.18s-3.66-.33-5.66-.33-3.33,1.33-6,1.33a120.34,120.34,0,0,1-14.31-.67c-5-.66-11,2-12,7s-3.52,65.11-3.52,65.11h89.77s-1.87-58.32-3.2-64.65-4.66-7.33-9.33-7.66-8.12.87-17.44.87S183.19,317.18,183.19,317.18Z" style="fill: rgb(137, 231, 121); stroke: rgb(38, 50, 56); stroke-linecap: round; stroke-linejoin: round; stroke-width: 1.21103px; transform-origin: 186.585px 353.235px;" id="eltg2568liiih" class="animable"></path><path d="M176,324s2.75,13.2,10.44,16.5" style="fill: none; stroke: rgb(38, 50, 56); stroke-linecap: round; stroke-linejoin: round; stroke-width: 1.21103px; transform-origin: 181.22px 332.25px;" id="elgk4cr3fl3yq" class="animable"></path><path d="M168.86,321.82s-3.85,8.25,1.65,20.35" style="fill: none; stroke: rgb(38, 50, 56); stroke-linecap: round; stroke-linejoin: round; stroke-width: 1.21103px; transform-origin: 169.03px 331.995px;" id="els6e51v8np3" class="animable"></path><path d="M214.5,338.87s-8.8,22.54-28.05,33" style="fill: none; stroke: rgb(38, 50, 56); stroke-linecap: round; stroke-linejoin: round; stroke-width: 1.21103px; transform-origin: 200.475px 355.37px;" id="el2tilq08pwq4" class="animable"></path><path d="M178.2,309.52s.66,9.33,1.66,14.65,6.66,8.66,13,6.66,9-6.32,9.32-9.32.33-14.32.33-14.32S192.51,313.85,178.2,309.52Z" style="fill: rgb(255, 255, 255); stroke: rgb(38, 50, 56); stroke-linecap: round; stroke-linejoin: round; stroke-width: 1.21103px; transform-origin: 190.355px 319.303px;" id="elqz1yhu7629j" class="animable"></path><path d="M212.37,256.47s.9-1.2-1.51-4.82-8.14-6-8.14-6l3.62,4.82S196.08,245,191.86,245s-14.77,1.5-14.77,1.5l5.12,1.21s-12.66,3.92-14.17,5.73-8.74,7.84-7.24,7.84,9-1.21,9-1.21-7.54,7.24-7.54,10.25S169,287.83,169,287.83s4.52,8.15,6,4.23-.91-13.27-.61-14.18,17.79-2.41,21.71-2.41,3.32,9.35,4.83,10.86,8.74,4.22,10,4.22,3.32-.91,3.32-2.11a23.12,23.12,0,0,1,1.5-7.54c1.21-3,2.72-5.73,3-9.35s-1.81-11.76-1.81-11.76h2.71S216.89,255.27,212.37,256.47Z" style="fill: rgb(38, 50, 56); stroke: rgb(38, 50, 56); stroke-linecap: round; stroke-linejoin: round; stroke-width: 1.21103px; transform-origin: 190.123px 269.063px;" id="el4n5w20y5583" class="animable"></path><path d="M170.45,285.72s-1.5-5.73-4.22-1.81c-1.75,2.53,2.72,12.67,5.13,13.27S170.45,285.72,170.45,285.72Z" style="fill: rgb(255, 255, 255); stroke: rgb(38, 50, 56); stroke-linecap: round; stroke-linejoin: round; stroke-width: 1.21103px; transform-origin: 169.035px 289.87px;" id="el20p9s7ecp8m" class="animable"></path><path d="M170.45,274.26s0,22,1.51,27.44,7.54,13.57,16.28,13.57,14.78-4.52,17.19-7.84,3.62-9.95,3.62-9.95,2.71,2.11,6-1.81,3.79-10.9,2.41-11.76c-2.41-1.5-5.12.31-6.33,1.51l-2.41,2.41s-3.92-2.71-3.92-6.33.6-10.25.6-10.25l-2.71,1.81.3-2.41s-.6.6-4.22.6-12.37.6-12.37.6l4.53-6s-8.75,3.92-11.76,5.73S170.45,274.26,170.45,274.26Z" style="fill: rgb(255, 255, 255); stroke: rgb(38, 50, 56); stroke-linecap: round; stroke-linejoin: round; stroke-width: 1.21103px; transform-origin: 194.315px 290.56px;" id="els6mwpbla69" class="animable"></path><path d="M181.78,287.48c0,1.63-.64,3-1.44,3s-1.44-1.33-1.44-3,.64-3,1.44-3S181.78,285.84,181.78,287.48Z" style="fill: rgb(38, 50, 56); transform-origin: 180.34px 287.48px;" id="el34mddub9aik" class="animable"></path><path d="M195.74,287.88c0,1.63-.64,3-1.44,3s-1.45-1.33-1.45-3,.65-3,1.45-3S195.74,286.25,195.74,287.88Z" style="fill: rgb(38, 50, 56); transform-origin: 194.295px 287.88px;" id="elbwlzf5k42nm" class="animable"></path><path d="M184.21,294.47s0,4.24,5.24,3.23" style="fill: none; stroke: rgb(38, 50, 56); stroke-linecap: round; stroke-linejoin: round; stroke-width: 1.21103px; transform-origin: 186.83px 296.163px;" id="elsfg2wonv7gs" class="animable"></path><path d="M182.59,302.14s4.24,2.63,10.09-.2" style="fill: none; stroke: rgb(38, 50, 56); stroke-linecap: round; stroke-linejoin: round; stroke-width: 1.21103px; transform-origin: 187.635px 302.596px;" id="eldnu3bvze7n" class="animable"></path><path d="M175.12,281.76a4.66,4.66,0,0,1,5.45-2.22" style="fill: none; stroke: rgb(38, 50, 56); stroke-linecap: round; stroke-linejoin: round; stroke-width: 1.21103px; transform-origin: 177.845px 280.548px;" id="elpomakcrqsz" class="animable"></path><path d="M191.47,279.54s4.85-1.42,6.66,1.81" style="fill: none; stroke: rgb(38, 50, 56); stroke-linecap: round; stroke-linejoin: round; stroke-width: 1.21103px; transform-origin: 194.8px 280.29px;" id="elr04um5gfh7" class="animable"></path><path d="M145.81,322.61l-13.38,36.85s-8.57,6.22-9.49,7.84c-2.3,4,.7,9.73,3.47,12.71,4.36,4.69,13.23,5.35,18.54,1.88,3.48-2.28,5.53-6.91,6.84-10.72l1.41-32.37" style="fill: rgb(137, 231, 121); stroke: rgb(38, 50, 56); stroke-linecap: round; stroke-linejoin: round; stroke-width: 1.21103px; transform-origin: 137.661px 353.347px;" id="elsy37ebaw27i" class="animable"></path><path d="M126.64,362.7s6.86-5.66,18.17.8" style="fill: none; stroke: rgb(38, 50, 56); stroke-linecap: round; stroke-linejoin: round; stroke-width: 1.21103px; transform-origin: 135.725px 361.953px;" id="eldtjq60nyqn7" class="animable"></path><path d="M132.57,365.46l9.06,2s8.66-3.55,9.45.39-5.12,5.12-6.7,5.12-5.51-.4-7.09,0-3.54,2.36-7.08,2.75c0,0-9.85,3.94-13.79,1.58s-.78-10.63,4.34-13.39S132.57,365.46,132.57,365.46Z" style="fill: rgb(255, 255, 255); stroke: rgb(38, 50, 56); stroke-linecap: round; stroke-linejoin: round; stroke-width: 1.21103px; transform-origin: 132.901px 370.52px;" id="eln8m8x04iizq" class="animable"></path><path d="M112.37,368.37s-3.85-2.3-5.08.62-4.75,9.71-2.54,9.11S112.37,368.37,112.37,368.37Z" style="fill: rgb(255, 255, 255); stroke: rgb(38, 50, 56); stroke-linecap: round; stroke-linejoin: round; stroke-width: 1.21103px; transform-origin: 108.203px 372.823px;" id="eljpj5svkq94p" class="animable"></path><path d="M118.39,364.28s-6.34-.69-7.08,1.18c-1.38,3.46-3.15,13-.4,13.78s3.55-5.12,5.12-8.66A52.42,52.42,0,0,0,118.39,364.28Z" style="fill: rgb(255, 255, 255); stroke: rgb(38, 50, 56); stroke-linecap: round; stroke-linejoin: round; stroke-width: 1.21103px; transform-origin: 113.927px 371.733px;" id="el90iwum17557" class="animable"></path><path d="M121.94,360.34s-4.73-.4-6.3,2.75-2.49,15.78-.92,15.78,1.14,1.25,3.5-3.87c1.16-2.5,2.93-10.72,2.93-10.72Z" style="fill: rgb(255, 255, 255); stroke: rgb(38, 50, 56); stroke-linecap: round; stroke-linejoin: round; stroke-width: 1.21103px; transform-origin: 117.923px 369.664px;" id="el8z1le63aw4n" class="animable"></path><path d="M133.7,366.52s-6.27-5.34-7.92-6.26-2.77-1.29-4.61.37-2.21,7.55-3.69,11.24-2.94,7.55-1.1,7.55,3.5-.92,5-2.95,4.24-9.21,4.24-9.21" style="fill: rgb(255, 255, 255); stroke: rgb(38, 50, 56); stroke-linecap: round; stroke-linejoin: round; stroke-width: 1.21103px; transform-origin: 124.609px 369.449px;" id="el2kk06dad5ak" class="animable"></path><path d="M124.67,370.94s2.21.93,5.34-1.1" style="fill: rgb(255, 255, 255); stroke: rgb(38, 50, 56); stroke-linecap: round; stroke-linejoin: round; stroke-width: 1.21103px; transform-origin: 127.34px 370.496px;" id="elz2542pb5d3s" class="animable"></path><path d="M217.41,317.05s7.54-1.45,11.2,2.22,14.19,31.17,17.85,40.49,7.33,16,6.33,20.65-8.66,6.33-14.32,6.66c-6.39.38-10.66-3.66-10.66-5s-2.33-4.33,2-14.66l-3-22" style="fill: rgb(137, 231, 121); stroke: rgb(38, 50, 56); stroke-linecap: round; stroke-linejoin: round; stroke-width: 1.21103px; transform-origin: 235.183px 351.931px;" id="elq90503lyrl" class="animable"></path><path d="M237.08,368.94s-6.33-2.74-7.39-2.74a6.48,6.48,0,0,0-1.48,3.8c0,2.11.21,10.77,1.27,11.2s4.22-1.48,6.34-4.44S238.35,369.58,237.08,368.94Z" style="fill: rgb(255, 255, 255); stroke: rgb(38, 50, 56); stroke-linecap: round; stroke-linejoin: round; stroke-width: 1.21103px; transform-origin: 233.004px 373.73px;" id="el50l9ne9faw6" class="animable"></path><path d="M232.44,357.14l-3.59,29.12,1.26,4.65,2.12-4,3.8-29.36a1.8,1.8,0,0,0-1.59-2h0A1.8,1.8,0,0,0,232.44,357.14Z" style="fill: rgb(255, 255, 255); stroke: rgb(38, 50, 56); stroke-linecap: round; stroke-linejoin: round; stroke-width: 1.21103px; transform-origin: 232.446px 373.224px;" id="elbd0z8sn3jff" class="animable"></path><polygon points="232.23 386.9 228.85 386.26 230.11 390.91 232.23 386.9" style="fill: rgb(255, 255, 255); stroke: rgb(38, 50, 56); stroke-linecap: round; stroke-linejoin: round; stroke-width: 1.21103px; transform-origin: 230.54px 388.585px;" id="elh5innhbi6ys" class="animable"></polygon><path d="M234.44,355.55a1.8,1.8,0,0,0-2,1.59l-.47,3.77,3.53.7.53-4.07A1.8,1.8,0,0,0,234.44,355.55Z" style="fill: rgb(255, 255, 255); stroke: rgb(38, 50, 56); stroke-linecap: round; stroke-linejoin: round; stroke-width: 1.21103px; transform-origin: 234.006px 358.574px;" id="elsppql7w411n" class="animable"></path><path d="M229.69,366.2c-1.06,0-3.17,2.74-4.43,4.22s-.85,4.65.21,7.18,1.47,7.19,2.74,7.4,2.33-1.06,2.33-3.38-.43-7.18-.43-7.18" style="fill: rgb(255, 255, 255); stroke: rgb(38, 50, 56); stroke-linecap: round; stroke-linejoin: round; stroke-width: 1.21103px; transform-origin: 227.51px 375.611px;" id="elqr3y0i38k2f" class="animable"></path><path d="M243.84,381.2s1.48,4-.21,6.12-7.18,1.27-8.24.42S240,385.42,243.84,381.2Z" style="fill: rgb(255, 255, 255); stroke: rgb(38, 50, 56); stroke-linecap: round; stroke-linejoin: round; stroke-width: 1.21103px; transform-origin: 239.85px 384.925px;" id="elnh4h3wr5q2l" class="animable"></path><path d="M243.21,377.39a4.47,4.47,0,0,1,.84,4.65c-1.05,2.75-4.85,5.07-7.6,5.49s-5.07-1-3.8-1.9S240.25,380.56,243.21,377.39Z" style="fill: rgb(255, 255, 255); stroke: rgb(38, 50, 56); stroke-linecap: round; stroke-linejoin: round; stroke-width: 1.21103px; transform-origin: 238.329px 382.498px;" id="elahoeq67unr" class="animable"></path><path d="M240.68,372.75s2.53,2.32,2.53,4.64-6.13,7.82-9.08,8.87-4.44,0-3.59-1.9,9.29-11.4,9.29-11.4S239.41,372.32,240.68,372.75Z" style="fill: rgb(255, 255, 255); stroke: rgb(38, 50, 56); stroke-linecap: round; stroke-linejoin: round; stroke-width: 1.21103px; transform-origin: 236.756px 379.639px;" id="el1hcbjvq6dca" class="animable"></path><path d="M233.49,372.75s-4.64,8-5.28,10.56,1.69,2.53,3.17,1.48,8.45-9.51,9.3-12-.64-5.28-3.38-4.86S233.49,372.75,233.49,372.75Z" style="fill: rgb(255, 255, 255); stroke: rgb(38, 50, 56); stroke-linecap: round; stroke-linejoin: round; stroke-width: 1.21103px; transform-origin: 234.51px 376.674px;" id="el4g87a8j2w8t" class="animable"></path></g></g><g id="character-2--inject-1" class="animable" style="transform-origin: 295.902px 294.169px;"><g style="clip-path: url(&quot;#clip-path-3--inject-1&quot;); transform-origin: 295.902px 294.169px;" id="el1jmwcl70s4p" class="animable"><path d="M339.37,321.36h66.86s3.83.64,2.56,8.3-8.29,59-8.29,59H317.9L330.57,324S331.07,320.72,339.37,321.36Z" style="fill: rgb(255, 255, 255); stroke: rgb(38, 50, 56); stroke-linecap: round; stroke-linejoin: round; stroke-width: 1.21103px; transform-origin: 363.474px 354.969px;" id="elmgfs0xclkdn" class="animable"></path><path d="M408.79,329.66c-1.28,7.66-8.29,59-8.29,59h-7c1.7-11.56,8.13-57,9.23-61.92s2.9-5.4,3.39-5.43h.12S410.06,322,408.79,329.66Z" style="fill: rgb(38, 50, 56); stroke: rgb(38, 50, 56); stroke-linecap: round; stroke-linejoin: round; stroke-width: 1.21103px; transform-origin: 401.274px 354.985px;" id="el780ym95894k" class="animable"></path><path d="M298.82,282.85s-6.29,7.45-8.15,14.66-6.52,25.61-8.62,32.83-30.25,57.08-30.25,57.08l11.17.7s22.11-24.26,27-29.14,8.61-9.55,8.61-9.55l1.4,37h77.53s-4.43-28.17-8.15-47.5-7.45-37.71-15.83-49.35-33.3-23.52-33.3-23.52Z" style="fill: rgb(137, 231, 121); stroke: rgb(38, 50, 56); stroke-linecap: round; stroke-linejoin: round; stroke-width: 1.21103px; transform-origin: 314.655px 327.09px;" id="el5dw1bm7eanu" class="animable"></path><line x1="352.03" y1="322.65" x2="365.61" y2="389.49" style="fill: none; stroke: rgb(38, 50, 56); stroke-linecap: round; stroke-linejoin: round; stroke-width: 1.21103px; transform-origin: 358.82px 356.07px;" id="el5l3ie0u6xbn" class="animable"></line><line x1="334.8" y1="328.39" x2="345.77" y2="392.62" style="fill: none; stroke: rgb(38, 50, 56); stroke-linecap: round; stroke-linejoin: round; stroke-width: 1.21103px; transform-origin: 340.285px 360.505px;" id="el553cdups38x" class="animable"></line><line x1="316" y1="292.88" x2="325.4" y2="390.53" style="fill: none; stroke: rgb(38, 50, 56); stroke-linecap: round; stroke-linejoin: round; stroke-width: 1.21103px; transform-origin: 320.7px 341.705px;" id="elzsmb0d37l2o" class="animable"></line><line x1="298.77" y1="300.71" x2="308.17" y2="385.83" style="fill: none; stroke: rgb(38, 50, 56); stroke-linecap: round; stroke-linejoin: round; stroke-width: 1.21103px; transform-origin: 303.47px 343.27px;" id="elcddrqm0bc4" class="animable"></line><path d="M292.5,306.46s-7.83,35-12,44.39" style="fill: none; stroke: rgb(38, 50, 56); stroke-linecap: round; stroke-linejoin: round; stroke-width: 1.21103px; transform-origin: 286.5px 328.655px;" id="el6tn6zh7chps" class="animable"></path><path d="M294.59,333.09s-4.7,19.32-8.35,26.63" style="fill: none; stroke: rgb(38, 50, 56); stroke-linecap: round; stroke-linejoin: round; stroke-width: 1.21103px; transform-origin: 290.415px 346.405px;" id="eltq4rdsvts4c" class="animable"></path><line x1="320.7" y1="276.17" x2="332.71" y2="284.53" style="fill: none; stroke: rgb(38, 50, 56); stroke-linecap: round; stroke-linejoin: round; stroke-width: 1.21103px; transform-origin: 326.705px 280.35px;" id="el0szbqql82oqm" class="animable"></line><line x1="298.58" y1="349.43" x2="294.63" y2="317.77" style="fill: none; stroke: rgb(38, 50, 56); stroke-linecap: round; stroke-linejoin: round; stroke-width: 1.21103px; transform-origin: 296.605px 333.6px;" id="el82ufxa760o8" class="animable"></line><path d="M273,349.34c-8.19,15.88-21.22,38.08-21.22,38.08l11.17.7s20.26-22.23,26.19-28.32C285,357.1,278,352.5,273,349.34Z" style="fill: rgb(255, 255, 255); stroke: rgb(38, 50, 56); stroke-linecap: round; stroke-linejoin: round; stroke-width: 1.21103px; transform-origin: 270.46px 368.73px;" id="el0wsjs3cxydo8" class="animable"></path><path d="M269.71,355.48s13.51,9.78,14.67,9.78,7.92-6.75,8.38-8.15-16.29-12.8-17.23-12.8S269.71,352.22,269.71,355.48Z" style="fill: rgb(255, 255, 255); stroke: rgb(38, 50, 56); stroke-linecap: round; stroke-linejoin: round; stroke-width: 1.21103px; transform-origin: 281.24px 354.785px;" id="elnbbsznihbyp" class="animable"></path><polyline points="302.07 290.3 304.4 314.74 308.59 313.81 308.13 308.46" style="fill: none; stroke: rgb(38, 50, 56); stroke-linecap: round; stroke-linejoin: round; stroke-width: 1.21103px; transform-origin: 305.33px 302.52px;" id="eli3nfkaxptp" class="animable"></polyline><polygon points="292.3 286.81 291.13 296.35 299.75 287.5 292.3 286.81" style="fill: rgb(255, 255, 255); stroke: rgb(38, 50, 56); stroke-linecap: round; stroke-linejoin: round; stroke-width: 1.21103px; transform-origin: 295.44px 291.58px;" id="eljxrb3lfqggi" class="animable"></polygon><polygon points="297.19 278.89 292.3 286.81 305.57 291.93 309.29 282.15 297.19 278.89" style="fill: rgb(255, 255, 255); stroke: rgb(38, 50, 56); stroke-linecap: round; stroke-linejoin: round; stroke-width: 1.21103px; transform-origin: 300.795px 285.41px;" id="el8zdvzc09vhl" class="animable"></polygon><path d="M262,225.34s-1.86,11.88-1.16,14.2,3.72,5.13,4,7.22-5.36,9.31-3.73,11.18,5.12,3.26,5.12,3.26,7,18.39,10.25,19.09,13.73-4.89,13.73-4.89,13,11.87,13.74,12.57,13.73-25.61,13.73-25.61-5.82-11.41-5.82-12.11,9.08-25.61,8.62-35.62-29.1-19.79-34.92-18.85-18.16,7.68-18.16,7.68,4.42-3.73.69-3.49-14.9,8.61-14.43,15.83S262,225.34,262,225.34Z" style="fill: rgb(255, 255, 255); stroke: rgb(38, 50, 56); stroke-linecap: round; stroke-linejoin: round; stroke-width: 1.21103px; transform-origin: 287.071px 241.85px;" id="el7hfazdb31yp" class="animable"></path><path d="M301.84,263.29c2.33-6.52-2.79-18.86-2.33-21.65s2.8-9.55,7-9.55,3.49,8.39,3,11.88a21.24,21.24,0,0,1-2.56,7s2.74-.49,4.92-.83c.53-2.09,9-25.78,8.59-35.49-.47-10-29.1-19.79-34.92-18.85s-18.16,7.68-18.16,7.68,4.42-3.73.69-3.49-14.9,8.61-14.43,15.83,8.38,9.54,8.38,9.54,14.9-7.45,20.26-8.15-1.63,5.13-2.1,8.39,7.68,5.82,10.71,8.61,4.89,20.72,3,24.91-10.71,2.1-14.9.47-12.81,1.63-12.81,1.63,7,18.39,10.25,19.09c1.78.38,5.71-1.12,8.92-2.56l4.81-2.33S299.51,269.81,301.84,263.29Z" style="fill: rgb(38, 50, 56); stroke: rgb(38, 50, 56); stroke-linecap: round; stroke-linejoin: round; stroke-width: 1.21103px; transform-origin: 287.05px 238.054px;" id="elmz34wqhhola" class="animable"></path><path d="M272,246.28c.37,1.5.21,2.82-.35,3s-1.31-1-1.68-2.46-.22-2.83.35-3S271.64,244.78,272,246.28Z" style="fill: rgb(38, 50, 56); transform-origin: 270.984px 246.551px;" id="el2d0vl5mpvxg" class="animable"></path><path d="M269.71,265.39s4.66,0,7.22-3.73" style="fill: none; stroke: rgb(125, 125, 125); stroke-linecap: round; stroke-linejoin: round; stroke-width: 1.21103px; transform-origin: 273.32px 263.525px;" id="el9ng52gaj35b" class="animable"></path><path d="M266,240.48s.7-3.26,6.52-.94" style="fill: none; stroke: rgb(38, 50, 56); stroke-linecap: round; stroke-linejoin: round; stroke-width: 2.42206px; transform-origin: 269.26px 239.593px;" id="el6wpdm97v8g9" class="animable"></path><polygon points="316.74 258.4 300.68 289.83 309.29 300.54 323.96 265.85 316.74 258.4" style="fill: rgb(255, 255, 255); stroke: rgb(38, 50, 56); stroke-linecap: round; stroke-linejoin: round; stroke-width: 1.21103px; transform-origin: 312.32px 279.47px;" id="elhp99wjrf2u" class="animable"></polygon><path d="M335.6,286.57s-7.22-.93-10,1.17-17,35.62-17,35.62a23.07,23.07,0,0,1,11,7c4.42,5.35,7.68,14.9,7.68,14.9s18.86-23.05,22.35-28.17" style="fill: rgb(137, 231, 121); stroke: rgb(38, 50, 56); stroke-linecap: round; stroke-linejoin: round; stroke-width: 1.21103px; transform-origin: 329.115px 315.812px;" id="elsarnv85ceu" class="animable"></path><path d="M336.89,291.31s-6.27.53-8.35,4.18-18.28,37.08-18.28,37.08l6.79,5.74s14.1-29.76,18.27-35a21.49,21.49,0,0,1,10.45-6.79" style="fill: none; stroke: rgb(38, 50, 56); stroke-linecap: round; stroke-linejoin: round; stroke-width: 1.21103px; transform-origin: 328.015px 314.81px;" id="ele6eo1fb20mi" class="animable"></path><line x1="346.81" y1="306.98" x2="323.84" y2="338.83" style="fill: none; stroke: rgb(38, 50, 56); stroke-linecap: round; stroke-linejoin: round; stroke-width: 1.21103px; transform-origin: 335.325px 322.905px;" id="el4vs0g9lzxgi" class="animable"></line><path d="M305.1,321.73s-6.28,3.95-6.28,8.38,5.58,14.43,11.64,19.32,11.4,3.49,14.43,1.4,10.48-3.26,10.94-11.64S324.89,318.7,320,317.07,305.1,321.73,305.1,321.73Z" style="fill: rgb(255, 255, 255); stroke: rgb(38, 50, 56); stroke-linecap: round; stroke-linejoin: round; stroke-width: 1.21103px; transform-origin: 317.332px 334.774px;" id="eli9tripyvrsl" class="animable"></path><path d="M202.67,349.43s-2.57,2.33-5.13,4.19-5.35,3.26-3,4.42,4.89.24,7.45-.23,5.58-1.16,5.82-3S207.55,347.34,202.67,349.43Z" style="fill: rgb(255, 255, 255); stroke: rgb(38, 50, 56); stroke-linecap: round; stroke-linejoin: round; stroke-width: 1.21103px; transform-origin: 200.756px 353.787px;" id="eliwa0esfzy5i" class="animable"></path><path d="M321.17,348.5s3.72-6.52.23-13-10.25-9.54-14.44-9.54-75.66,20-75.66,20-21.65-6.05-24.21-5.12-17.93,9.31-21.42,10.94-3.49,3.72-1.86,4,5.82-1.17,7.91-1.87,9.08-3.26,9.08-3.26a38.14,38.14,0,0,0-1.39,5.13c0,.93,6.51,4.42,7.68,4.42s5.12.7,7.91-.23-1.16-4.89-1.16-4.89l4.89-2.1s4.89,2.56,9.08,2.33a15.2,15.2,0,0,0,6.52-1.63S310,351.53,321.17,348.5Z" style="fill: rgb(255, 255, 255); stroke: rgb(38, 50, 56); stroke-linecap: round; stroke-linejoin: round; stroke-width: 1.21103px; transform-origin: 252.824px 343.206px;" id="elxia68nb6as" class="animable"></path><path d="M205,348.5s-3,5.82-2.32,7,6.75,4.43,6.75,4.43" style="fill: none; stroke: rgb(38, 50, 56); stroke-linecap: round; stroke-linejoin: round; stroke-width: 1.21103px; transform-origin: 206.005px 354.215px;" id="el0b78geibg8kq" class="animable"></path><path d="M209.88,348.73s-3,5.82-2.09,7,7.21,4.19,7.21,4.19" style="fill: none; stroke: rgb(38, 50, 56); stroke-linecap: round; stroke-linejoin: round; stroke-width: 1.21103px; transform-origin: 211.309px 354.325px;" id="el936zlqr2s9k" class="animable"></path><line x1="200.8" y1="350.59" x2="201.27" y2="348.5" style="fill: none; stroke: rgb(38, 50, 56); stroke-linecap: round; stroke-linejoin: round; stroke-width: 1.21103px; transform-origin: 201.035px 349.545px;" id="el7datouuiqly" class="animable"></line></g></g><g id="Table--inject-1" class="animable" style="transform-origin: 254.09px 386.45px;"><line x1="468" y1="386.45" x2="40.18" y2="386.45" style="fill: none; stroke: rgb(38, 50, 56); stroke-linecap: round; stroke-linejoin: round; stroke-width: 1.21103px; transform-origin: 254.09px 386.45px;" id="eltk2ib7erlk" class="animable"></line></g><g id="Device--inject-1" class="animable" style="transform-origin: 134.33px 375.795px;"><polygon points="195.64 385.77 117.65 385.77 87.88 401.85 169.6 401.85 195.64 385.77" style="fill: rgb(255, 255, 255); stroke: rgb(38, 50, 56); stroke-linecap: round; stroke-linejoin: round; stroke-width: 1.21103px; transform-origin: 141.76px 393.81px;" id="elo48il4i4qfj" class="animable"></polygon><line x1="122.75" y1="389.97" x2="180.34" y2="389.97" style="fill: none; stroke: rgb(38, 50, 56); stroke-linecap: round; stroke-linejoin: round; stroke-width: 1.21103px; transform-origin: 151.545px 389.97px;" id="elqs10pbwvr7" class="animable"></line><line x1="118.55" y1="392.97" x2="176.14" y2="392.97" style="fill: none; stroke: rgb(38, 50, 56); stroke-linecap: round; stroke-linejoin: round; stroke-width: 1.21103px; transform-origin: 147.345px 392.97px;" id="el8mcrvwkhs8q" class="animable"></line><line x1="114.35" y1="395.97" x2="171.94" y2="395.97" style="fill: none; stroke: rgb(38, 50, 56); stroke-linecap: round; stroke-linejoin: round; stroke-width: 1.21103px; transform-origin: 143.145px 395.97px;" id="elzob97qv5pzs" class="animable"></line><line x1="180.64" y1="389.97" x2="164.15" y2="398.07" style="fill: none; stroke: rgb(38, 50, 56); stroke-linecap: round; stroke-linejoin: round; stroke-width: 1.21103px; transform-origin: 172.395px 394.02px;" id="elhpzawj2m3go" class="animable"></line><line x1="171.64" y1="389.97" x2="155.15" y2="398.07" style="fill: none; stroke: rgb(38, 50, 56); stroke-linecap: round; stroke-linejoin: round; stroke-width: 1.21103px; transform-origin: 163.395px 394.02px;" id="elyd0do0loh6" class="animable"></line><polygon points="73.92 345.75 155.65 345.75 169.6 401.85 87.88 401.85 73.92 345.75" style="fill: rgb(38, 50, 56); stroke: rgb(38, 50, 56); stroke-linecap: round; stroke-linejoin: round; stroke-width: 1.21103px; transform-origin: 121.76px 373.8px;" id="el4fvi7lkbicn" class="animable"></polygon><g id="el09q4ss9pa86d"><rect x="87.88" y="401.85" width="81.73" height="3.99" style="fill: rgb(255, 255, 255); stroke: rgb(38, 50, 56); stroke-linecap: round; stroke-linejoin: round; stroke-width: 1.21103px; transform-origin: 128.745px 403.845px; transform: rotate(180deg);" class="animable"></rect></g><polygon points="73.02 345.75 154.75 345.75 168.7 401.85 86.97 401.85 73.02 345.75" style="fill: rgb(255, 255, 255); stroke: rgb(38, 50, 56); stroke-linecap: round; stroke-linejoin: round; stroke-width: 1.21103px; transform-origin: 120.86px 373.8px;" id="elt4uzigwwd5" class="animable"></polygon><polygon points="169.6 401.85 195.64 385.77 195.64 389.07 169.6 405.83 169.6 401.85" style="fill: rgb(38, 50, 56); stroke: rgb(38, 50, 56); stroke-linecap: round; stroke-linejoin: round; stroke-width: 1.21103px; transform-origin: 182.62px 395.8px;" id="ellxgdu2uioid" class="animable"></polygon><path d="M124.41,372.09a4.37,4.37,0,1,1-5.41-3.57A4.59,4.59,0,0,1,124.41,372.09Z" style="fill: none; stroke: rgb(38, 50, 56); stroke-linecap: round; stroke-linejoin: round; stroke-width: 1.21103px; transform-origin: 120.09px 372.775px;" id="elc84xyny16b9" class="animable"></path></g><defs>     <filter id="active" height="200%">         <feMorphology in="SourceAlpha" result="DILATED" operator="dilate" radius="2"></feMorphology>                <feFlood flood-color="#32DFEC" flood-opacity="1" result="PINK"></feFlood>        <feComposite in="PINK" in2="DILATED" operator="in" result="OUTLINE"></feComposite>        <feMerge>            <feMergeNode in="OUTLINE"></feMergeNode>            <feMergeNode in="SourceGraphic"></feMergeNode>        </feMerge>    </filter>    <filter id="hover" height="200%">        <feMorphology in="SourceAlpha" result="DILATED" operator="dilate" radius="2"></feMorphology>                <feFlood flood-color="#ff0000" flood-opacity="0.5" result="PINK"></feFlood>        <feComposite in="PINK" in2="DILATED" operator="in" result="OUTLINE"></feComposite>        <feMerge>            <feMergeNode in="OUTLINE"></feMergeNode>            <feMergeNode in="SourceGraphic"></feMergeNode>        </feMerge>            <feColorMatrix type="matrix" values="0   0   0   0   0                0   1   0   0   0                0   0   0   0   0                0   0   0   1   0 "></feColorMatrix>    </filter></defs><defs><clipPath id="clip-path--inject-1"><rect x="64.79" y="136.63" width="96.28" height="249.59" style="fill:none"></rect></clipPath><clipPath id="clip-path-2--inject-1"><path d="M268.13,230.16h-175V385.75H227.76a.81.81,0,0,0,.45.29h.17a1.14,1.14,0,0,0,.58.38l-.11.89,1.26,4.64,2.12-4h0l0-.22.26,0a4.06,4.06,0,0,0,2.78,1,.44.44,0,0,0,.1.15c1.06.84,6.55,1.68,8.24-.43a3.25,3.25,0,0,0,.55-1,20,20,0,0,0,4.68-1.59h19.27Z" style="fill:none"></path></clipPath><clipPath id="clip-path-3--inject-1"><rect x="172.39" y="182.83" width="240.86" height="203.04" style="fill:none"></rect></clipPath></defs></svg>